<?xml version="1.0" encoding="UTF-8"?>
<svg style="height:63.655px !important;width:288.002px !important" version="1.1" viewBox="0 0 79.008 17.463" xmlns="http://www.w3.org/2000/svg">
<defs>
<clipPath id="bp">
<path transform="translate(-23.148 -122.98)" d="M 0,170.079 H 269.291 V 0 H 0 Z"/>
</clipPath>
<clipPath id="bo">
<path transform="translate(-29.542 -124.44)" d="M 0,170.079 H 269.291 V 0 H 0 Z"/>
</clipPath>
<clipPath id="bn">
<path transform="translate(-31.868 -123.71)" d="M 0,170.079 H 269.291 V 0 H 0 Z"/>
</clipPath>
<clipPath id="bm">
<path transform="translate(-36.329 -122.58)" d="M 0,170.079 H 269.291 V 0 H 0 Z"/>
</clipPath>
<clipPath id="bl">
<path transform="translate(-39.375 -123.73)" d="M 0,170.079 H 269.291 V 0 H 0 Z"/>
</clipPath>
<clipPath id="bk">
<path transform="translate(-44.765 -123.55)" d="M 0,170.079 H 269.291 V 0 H 0 Z"/>
</clipPath>
<clipPath id="bj">
<path transform="translate(-46.874 -123.71)" d="M 0,170.079 H 269.291 V 0 H 0 Z"/>
</clipPath>
<clipPath id="bi">
<path transform="translate(-50.517 -123.72)" d="M 0,170.079 H 269.291 V 0 H 0 Z"/>
</clipPath>
<clipPath id="bh">
<path transform="translate(-55.188 -121.51)" d="M 0,170.079 H 269.291 V 0 H 0 Z"/>
</clipPath>
<clipPath id="bg">
<path transform="translate(-58.11 -124.24)" d="M 0,170.079 H 269.291 V 0 H 0 Z"/>
</clipPath>
<clipPath id="bf">
<path transform="translate(-60.495 -123.68)" d="M 0,170.079 H 269.291 V 0 H 0 Z"/>
</clipPath>
<clipPath id="be">
<path transform="translate(-64.616 -123.16)" d="M 0,170.079 H 269.291 V 0 H 0 Z"/>
</clipPath>
<clipPath id="bd">
<path transform="translate(-66.58 -123.68)" d="M 0,170.079 H 269.291 V 0 H 0 Z"/>
</clipPath>
<clipPath id="bc">
<path transform="translate(-71.11 -121.27)" d="M 0,170.079 H 269.291 V 0 H 0 Z"/>
</clipPath>
<clipPath id="bb">
<path transform="translate(-74.513 -122.4)" d="M 0,170.079 H 269.291 V 0 H 0 Z"/>
</clipPath>
<clipPath id="ba">
<path transform="translate(-77.968 -121.27)" d="M 0,170.079 H 269.291 V 0 H 0 Z"/>
</clipPath>
<clipPath id="az">
<path transform="translate(-79.898 -123.94)" d="M 0,170.079 H 269.291 V 0 H 0 Z"/>
</clipPath>
<clipPath id="ay">
<path transform="translate(-85.7 -123.68)" d="M 0,170.079 H 269.291 V 0 H 0 Z"/>
</clipPath>
<clipPath id="ax">
<path transform="translate(-88.712 -121.01)" d="M 0,170.079 H 269.291 V 0 H 0 Z"/>
</clipPath>
<clipPath id="aw">
<path transform="translate(-93.535 -122.58)" d="M 0,170.079 H 269.291 V 0 H 0 Z"/>
</clipPath>
<clipPath id="av">
<path transform="translate(-95.911 -124.6)" d="M 0,170.079 H 269.291 V 0 H 0 Z"/>
</clipPath>
<clipPath id="au">
<path transform="translate(-98.054 -121.51)" d="M 0,170.079 H 269.291 V 0 H 0 Z"/>
</clipPath>
<clipPath id="at">
<path transform="translate(-101.7 -123.72)" d="M 0,170.079 H 269.291 V 0 H 0 Z"/>
</clipPath>
<clipPath id="as">
<path transform="translate(-106.56 -123.68)" d="M 0,170.079 H 269.291 V 0 H 0 Z"/>
</clipPath>
<clipPath id="ar">
<path transform="translate(-109.95 -123.92)" d="M 0,170.079 H 269.291 V 0 H 0 Z"/>
</clipPath>
<clipPath id="aq">
<path transform="translate(-114.21 -123.16)" d="M 0,170.079 H 269.291 V 0 H 0 Z"/>
</clipPath>
<clipPath id="ap">
<path transform="translate(-117.64 -124.01)" d="M 0,170.079 H 269.291 V 0 H 0 Z"/>
</clipPath>
<clipPath id="ao">
<path transform="translate(-120.59 -124.6)" d="M 0,170.079 H 269.291 V 0 H 0 Z"/>
</clipPath>
<clipPath id="an">
<path transform="translate(-122.92 -123.73)" d="M 0,170.079 H 269.291 V 0 H 0 Z"/>
</clipPath>
<clipPath id="am">
<path transform="translate(-125.58 -123.68)" d="M 0,170.079 H 269.291 V 0 H 0 Z"/>
</clipPath>
<clipPath id="al">
<path transform="translate(-129.48 -121.25)" d="M 0,170.079 H 269.291 V 0 H 0 Z"/>
</clipPath>
<clipPath id="ak">
<path transform="translate(-132.94 -123.68)" d="M 0,170.079 H 269.291 V 0 H 0 Z"/>
</clipPath>
<clipPath id="aj">
<path transform="translate(-136.24 -123.73)" d="M 0,170.079 H 269.291 V 0 H 0 Z"/>
</clipPath>
<clipPath id="ai">
<path transform="translate(-139.33 -123.8)" d="M 0,170.079 H 269.291 V 0 H 0 Z"/>
</clipPath>
<clipPath id="ah">
<path transform="translate(-141.38 -124.6)" d="M 0,170.079 H 269.291 V 0 H 0 Z"/>
</clipPath>
<clipPath id="ag">
<path transform="translate(-145.09 -123.55)" d="M 0,170.079 H 269.291 V 0 H 0 Z"/>
</clipPath>
<clipPath id="af">
<path transform="translate(-147.27 -123.68)" d="M 0,170.079 H 269.291 V 0 H 0 Z"/>
</clipPath>
<clipPath id="ae">
<path transform="translate(-151.53 -122.98)" d="M 0,170.079 H 269.291 V 0 H 0 Z"/>
</clipPath>
<clipPath id="ad">
<path transform="translate(-30.767 -137.65)" d="M 0,170.079 H 269.291 V 0 H 0 Z"/>
</clipPath>
<clipPath id="ac">
<path transform="translate(-42.346 -143.98)" d="M 0,170.079 H 269.291 V 0 H 0 Z"/>
</clipPath>
<clipPath id="ab">
<path transform="translate(-50.322 -142.83)" d="M 0,170.079 H 269.291 V 0 H 0 Z"/>
</clipPath>
<clipPath id="aa">
<path transform="translate(-57.245 -139.59)" d="M 0,170.079 H 269.291 V 0 H 0 Z"/>
</clipPath>
<clipPath id="z">
<path transform="translate(-77.474 -136.95)" d="M 0,170.079 H 269.291 V 0 H 0 Z"/>
</clipPath>
<clipPath id="y">
<path transform="translate(-99.802 -142.83)" d="M 0,170.079 H 269.291 V 0 H 0 Z"/>
</clipPath>
<clipPath id="x">
<path transform="translate(-119.6 -136.08)" d="M 0,170.079 H 269.291 V 0 H 0 Z"/>
</clipPath>
<clipPath id="w">
<path transform="translate(-126.13 -136.92)" d="M 0,170.079 H 269.291 V 0 H 0 Z"/>
</clipPath>
<clipPath id="v">
<path transform="translate(-137.93 -133.14)" d="M 0,170.079 H 269.291 V 0 H 0 Z"/>
</clipPath>
<clipPath id="u">
<path transform="translate(-143.49 -140.62)" d="M 0,170.079 H 269.291 V 0 H 0 Z"/>
</clipPath>
<clipPath id="t">
<path transform="translate(-92.425 -136.33)" d="M 0,170.079 H 269.291 V 0 H 0 Z"/>
</clipPath>
<clipPath id="s">
<path transform="translate(-92.425 -136.32)" d="M 0,170.079 H 269.291 V 0 H 0 Z"/>
</clipPath>
<clipPath id="r">
<path transform="translate(-79.355 -138.29)" d="M 0,170.079 H 269.291 V 0 H 0 Z"/>
</clipPath>
<clipPath id="q">
<path transform="translate(-79.355 -138.29)" d="M 0,170.079 H 269.291 V 0 H 0 Z"/>
</clipPath>
<clipPath id="p">
<path transform="translate(-92.474 -135.76)" d="M 0,170.079 H 269.291 V 0 H 0 Z"/>
</clipPath>
<clipPath id="o">
<path transform="translate(-92.472 -135.76)" d="M 0,170.079 H 269.291 V 0 H 0 Z"/>
</clipPath>
<clipPath id="n">
<path transform="translate(-84.873 -138.52)" d="M 0,170.079 H 269.291 V 0 H 0 Z"/>
</clipPath>
<clipPath id="m">
<path transform="translate(-87.214 -138.31)" d="M 0,170.079 H 269.291 V 0 H 0 Z"/>
</clipPath>
<clipPath id="l">
<path transform="translate(-82.843 -135.02)" d="M 0,170.079 H 269.291 V 0 H 0 Z"/>
</clipPath>
<clipPath id="k">
<path transform="translate(-82.926 -133.53)" d="M 0,170.079 H 269.291 V 0 H 0 Z"/>
</clipPath>
<clipPath id="j">
<path transform="translate(-82.271 -135.51)" d="M 0,170.079 H 269.291 V 0 H 0 Z"/>
</clipPath>
<clipPath id="i">
<path transform="translate(-83.228 -132.32)" d="M 0,170.079 H 269.291 V 0 H 0 Z"/>
</clipPath>
<clipPath id="h">
<path transform="translate(-82.788 -133.45)" d="M 0,170.079 H 269.291 V 0 H 0 Z"/>
</clipPath>
<clipPath id="g">
<path transform="translate(-80.632 -140.52)" d="M 0,170.079 H 269.291 V 0 H 0 Z"/>
</clipPath>
<clipPath id="f">
<path transform="translate(-79.312 -139.94)" d="M 0,170.079 H 269.291 V 0 H 0 Z"/>
</clipPath>
<clipPath id="e">
<path transform="translate(-92.458 -135.45)" d="M 0,170.079 H 269.291 V 0 H 0 Z"/>
</clipPath>
<clipPath id="d">
<path transform="translate(-92.354 -134.85)" d="M 0,170.079 H 269.291 V 0 H 0 Z"/>
</clipPath>
<clipPath id="c">
<path transform="translate(-85.571 -140.71)" d="M 0,170.079 H 269.291 V 0 H 0 Z"/>
</clipPath>
<clipPath id="b">
<path transform="translate(-87.232 -140.54)" d="M 0,170.079 H 269.291 V 0 H 0 Z"/>
</clipPath>
<clipPath id="a">
<path transform="translate(-88.895 -140.06)" d="M 0,170.079 H 269.291 V 0 H 0 Z"/>
</clipPath>
</defs>
<g transform="translate(8.8618 -3.8795)">
<g transform="matrix(1.7264 0 0 1.7264 -22.38 -9.1625)" fill="#211d1d">
<path transform="matrix(.35278 0 0 -.35278 8.1659 16.614)" d="m0 0c0.322 0 0.462-0.064 0.462-0.242 0-0.156-0.111-0.252-0.321-0.252-0.048 0-0.129 0.01-0.258 0.01-0.199 0-0.415-0.036-0.649-0.036-0.175 0-0.257 0.071-0.257 0.229 0 0.258 0.298 0.291 1.023 0.291" clip-path="url(#bp)"/>
<path transform="matrix(.35278 0 0 -.35278 10.422 16.099)" d="m0 0c0.182 0.283 0.252 0.459 0.444 0.459 0.17 0 0.305-0.121 0.305-0.264 0-0.115-0.135-0.357-0.409-0.715-0.516-0.667-1.1-1.218-1.772-1.658l6e-3 -5e-3v-0.307c0-0.39 6e-3 -0.698 6e-3 -0.92 0-0.596-0.029-0.87-0.333-0.87-0.175 0-0.263 0.128-0.263 0.384 0 0.138 0.024 0.464 0.024 0.987v0.632c-0.293 0.23-0.626 0.619-0.977 1.156-0.398 0.605-0.579 1.055-0.579 1.312 0 0.173 0.106 0.268 0.286 0.268 0.112 0 0.199-0.041 0.235-0.105 0.082-0.151 0.11-0.394 0.228-0.659 0.251-0.568 0.613-1.064 1.081-1.494 0.748 0.526 1.269 1.116 1.718 1.799" clip-path="url(#bo)"/>
<path transform="matrix(.35278 0 0 -.35278 11.242 16.359)" d="m0 0c-0.706 0-1.076-0.373-1.076-1.116 0-0.687 0.322-1.072 0.906-1.072 0.749 0 1.211 0.415 1.211 1.131 0 0.662-0.398 1.057-1.041 1.057m1.607-1.051c0-0.97-0.712-1.585-1.798-1.585-0.907 0-1.452 0.561-1.452 1.513 0 1.008 0.661 1.572 1.731 1.572 0.906 0 1.519-0.595 1.519-1.5" clip-path="url(#bn)"/>
<path transform="matrix(.35278 0 0 -.35278 12.816 16.757)" d="m0 0c0 0.971 6e-3 1.396 0.367 1.396 0.17 0 0.24-0.091 0.24-0.291 0-0.175-0.045-0.498-0.045-0.963 0-1.021 0.215-1.531 0.215-1.616 0-0.163-0.129-0.284-0.286-0.284-0.171 0-0.275 0.197-0.38 0.601-0.328-0.388-0.691-0.57-1.171-0.57-0.758 0-1.138 0.525-1.138 1.57 0 0.622 0.065 1.112 0.124 1.405 0.052 0.248 0.168 0.369 0.361 0.369 0.141 0 0.258-0.101 0.258-0.221 0-0.285-0.164-0.814-0.164-1.602 0-0.697 0.234-1.058 0.672-1.058 0.572 0 0.947 0.397 0.947 1.117v0.147" clip-path="url(#bm)"/>
<path transform="matrix(.35278 0 0 -.35278 13.891 16.352)" d="m0 0c0.386 0 0.638-0.176 0.638-0.402 0-0.127-0.1-0.223-0.223-0.223-0.152 0-0.239 0.171-0.443 0.171-0.358 0-0.609-0.288-0.609-0.765v-0.32c0-0.743-0.198-1.158-0.45-1.158-0.158 0-0.256 0.08-0.256 0.223 0 0.157 0.156 0.429 0.156 0.859 0 0.489-0.11 0.893-0.227 1.105-0.107 0.194-0.233 0.324-0.233 0.441 0 0.105 0.139 0.217 0.28 0.217 0.204 0 0.368-0.212 0.503-0.642 0.192 0.324 0.51 0.494 0.864 0.494" clip-path="url(#bl)"/>
<path transform="matrix(.35278 0 0 -.35278 15.792 16.414)" d="m0 0c0-0.158-0.1-0.248-0.27-0.248-0.082 0-0.145 0.025-0.181 0.076-0.081 0.106-0.106 0.218-0.158 0.272-0.127 0.123-0.379 0.199-0.737 0.199-0.736 0-1.162-0.502-1.162-1.401 0-0.697 0.35-1.066 0.982-1.066 0.415 0 0.694 0.111 0.969 0.35 0.142 0.12 0.194 0.352 0.41 0.352 0.141 0 0.27-0.105 0.27-0.218 0-0.15-0.194-0.382-0.603-0.656-0.287-0.191-0.655-0.281-1.116-0.281-0.906 0-1.479 0.551-1.479 1.48 0 1.202 0.66 1.893 1.729 1.893 0.83 0 1.346-0.363 1.346-0.752" clip-path="url(#bk)"/>
<path transform="matrix(.35278 0 0 -.35278 16.536 16.359)" d="m0 0c-0.706 0-1.075-0.373-1.075-1.116 0-0.687 0.321-1.072 0.907-1.072 0.748 0 1.21 0.415 1.21 1.131 0 0.662-0.397 1.057-1.042 1.057m1.607-1.051c0-0.97-0.711-1.585-1.798-1.585-0.907 0-1.451 0.561-1.451 1.513 0 1.008 0.661 1.572 1.731 1.572 0.905 0 1.518-0.595 1.518-1.5" clip-path="url(#bj)"/>
<path transform="matrix(.35278 0 0 -.35278 17.821 16.354)" d="m0 0c0.245 0 0.432-0.086 0.572-0.264 0.246 0.35 0.579 0.517 1.024 0.517 0.666 0 0.965-0.455 0.965-1.396 0-1.251-0.182-1.888-0.521-1.888-0.142 0-0.199 0.07-0.199 0.218 0 0.185 0.192 0.752 0.192 1.681 0 0.626-0.157 0.93-0.508 0.93-0.637 0-0.69-0.626-0.69-1.884 0-0.283 0.058-0.479 0.058-0.592 0-0.156-0.093-0.24-0.267-0.24-0.235 0-0.323 0.29-0.323 0.886 0 0.637 0.064 1.048 0.064 1.225 0 0.246-0.139 0.363-0.445 0.363-0.565 0-0.788-0.424-0.788-1.314 0-0.712 0.059-1.08 0.059-1.133 0-0.12-0.117-0.216-0.28-0.216-0.299 0-0.335 0.319-0.335 1.046 0 0.682 0.065 1.37 0.2 2.021 0.081 0.394 0.14 0.545 0.38 0.545 0.164 0 0.268-0.089 0.268-0.247 0-0.071-0.057-0.254-0.127-0.557 0.156 0.194 0.408 0.299 0.701 0.299" clip-path="url(#bi)"/>
<path transform="matrix(.35278 0 0 -.35278 19.469 17.133)" d="m0 0c0.655 0 1.034 0.333 1.034 0.94 0 0.606-0.345 0.949-0.916 0.949-0.439 0-0.732-0.136-0.83-0.368v-0.243c0-0.382-0.014-0.757-0.035-1.126 0.244-0.101 0.49-0.152 0.747-0.152m-0.726 2.056c0.223 0.187 0.52 0.288 0.89 0.288 0.855 0 1.439-0.536 1.439-1.404 0-0.844-0.626-1.383-1.603-1.383-0.269 0-0.532 0.049-0.794 0.155-0.077-0.656-0.094-0.93-0.369-0.93-0.164 0-0.287 0.101-0.287 0.223 0 0.07 0.181 0.853 0.181 2.531 0 0.262-0.011 0.455-0.011 0.572 0 0.227 0.07 0.328 0.261 0.328 0.166 0 0.283-0.092 0.288-0.23l5e-3 -0.15" clip-path="url(#bh)"/>
<path transform="matrix(.35278 0 0 -.35278 20.5 16.172)" d="m0 0c0-0.267-0.064-0.788-0.064-1.536 0-0.707 0.093-1.314 0.093-1.807 0-0.244-0.035-0.338-0.241-0.338-0.198 0-0.286 0.121-0.321 0.378-0.029 0.247-0.082 0.843-0.082 1.757 0 0.829 0.011 1.338 0.041 1.531 0.029 0.218 0.105 0.313 0.287 0.313 0.181 0 0.287-0.106 0.287-0.298" clip-path="url(#bg)"/>
<path transform="matrix(.35278 0 0 -.35278 21.341 16.368)" d="m0 0c-0.485 0-0.894-0.314-1.088-0.884 0.152-0.015 0.299-0.02 0.434-0.02 0.385 0 0.824 0.055 1.339 0.161-0.025 0.465-0.311 0.743-0.685 0.743m-0.321-2.253c0.339 0 0.503 0.166 0.736 0.372 0.054 0.048 0.13 0.077 0.182 0.077 0.157 0 0.293-0.117 0.293-0.266 0-0.056-0.036-0.128-0.083-0.173-0.332-0.314-0.689-0.465-1.151-0.465-0.884 0-1.363 0.47-1.363 1.364 0 0.454 0.164 0.894 0.434 1.213 0.327 0.383 0.746 0.58 1.22 0.58 0.754 0 1.305-0.486 1.305-1.162 0-0.177-0.023-0.272-0.205-0.379-0.082-0.051-0.276-0.085-0.578-0.141-0.373-0.067-0.743-0.116-1.106-0.116-0.158 0-0.326 0.01-0.502 0.026 0-0.617 0.28-0.93 0.818-0.93" clip-path="url(#bf)"/>
<path transform="matrix(.35278 0 0 -.35278 22.795 16.551)" d="m0 0c0-0.117-0.1-0.209-0.212-0.209-0.163 0-0.415 0.193-0.882 0.193-0.023 0-0.088 0-0.181-0.011-0.071-0.268-0.106-0.514-0.106-0.737 0-0.58 0.24-0.893 0.639-0.893 0.174 0 0.315 0.1 0.455 0.1 0.134 0 0.228-0.09 0.228-0.232 0-0.196-0.257-0.338-0.701-0.338-0.801 0-1.211 0.464-1.211 1.393 0 0.209 0.03 0.422 0.082 0.648-0.262-0.035-0.457-0.086-0.601-0.086-0.194 0-0.305 0.074-0.305 0.202 0 0.191 0.351 0.302 1.053 0.359 0.146 0.399 0.334 0.595 0.532 0.595 0.128 0 0.233-0.091 0.233-0.207 0-0.106-0.07-0.207-0.127-0.359 0.729-0.02 1.104-0.177 1.104-0.418" clip-path="url(#be)"/>
<path transform="matrix(.35278 0 0 -.35278 23.488 16.368)" d="m0 0c-0.486 0-0.894-0.314-1.088-0.884 0.151-0.015 0.299-0.02 0.434-0.02 0.384 0 0.823 0.055 1.338 0.161-0.023 0.465-0.31 0.743-0.684 0.743m-0.322-2.253c0.339 0 0.503 0.166 0.736 0.372 0.054 0.048 0.13 0.077 0.182 0.077 0.157 0 0.293-0.117 0.293-0.266 0-0.056-0.035-0.128-0.083-0.173-0.332-0.314-0.689-0.465-1.151-0.465-0.883 0-1.362 0.47-1.362 1.364 0 0.454 0.163 0.894 0.432 1.213 0.327 0.383 0.749 0.58 1.222 0.58 0.753 0 1.304-0.486 1.304-1.162 0-0.177-0.023-0.272-0.205-0.379-0.081-0.051-0.275-0.085-0.578-0.141-0.374-0.067-0.743-0.116-1.106-0.116-0.158 0-0.326 0.01-0.502 0.026 0-0.617 0.28-0.93 0.818-0.93" clip-path="url(#bd)"/>
<path transform="matrix(.35278 0 0 -.35278 25.086 17.218)" d="m0 0c0.608 0 1.053 0.448 1.053 1.15 0 0.638-0.369 1.023-0.924 1.023-0.392 0-0.708-0.143-0.889-0.401v-0.377c0-0.462-6e-3 -0.773-6e-3 -0.925v-4e-3c0.158-0.316 0.403-0.466 0.766-0.466m-0.777 2.31c0.304 0.196 0.619 0.293 0.975 0.293 0.866 0 1.421-0.526 1.421-1.436 0-1.017-0.637-1.626-1.66-1.626-0.304 0-0.549 0.081-0.754 0.236-5e-3 -0.317-0.064-0.45-0.293-0.45-0.169 0-0.267 0.108-0.267 0.295 0 0.07 0.051 0.701 0.051 1.971 0 0.459-5e-3 0.871-0.058 1.246-0.041 0.281-0.105 0.459-0.105 0.547 0 0.101 0.129 0.195 0.268 0.195 0.34 0 0.369-0.389 0.428-1.271h-6e-3" clip-path="url(#bc)"/>
<path transform="matrix(.35278 0 0 -.35278 26.286 16.819)" d="m0 0c-0.484 0-0.748-0.224-0.748-0.623 0-0.414 0.246-0.625 0.742-0.625 0.433 0 0.69 0.231 0.69 0.621 0 0.403-0.251 0.627-0.684 0.627m-0.135-1.662c-0.73 0-1.168 0.374-1.168 1.019 0 0.662 0.491 1.067 1.221 1.067 0.32 0 0.59-0.091 0.812-0.277-0.035 0.651-0.308 0.974-0.836 0.974-0.31 0-0.473-0.182-0.63-0.182-0.129 0-0.252 0.112-0.252 0.227 0 0.188 0.368 0.41 0.882 0.41 0.894 0 1.369-0.551 1.369-1.621 0-0.434-0.077-0.927-0.228-1.416-0.076-0.247-0.17-0.369-0.34-0.369-0.144 0-0.234 0.082-0.234 0.227 0 0.027 0 0.052 8e-3 0.076-0.195-0.09-0.387-0.135-0.604-0.135" clip-path="url(#bb)"/>
<path transform="matrix(.35278 0 0 -.35278 27.505 17.218)" d="m0 0c0.607 0 1.052 0.448 1.052 1.15 0 0.638-0.368 1.023-0.924 1.023-0.392 0-0.708-0.143-0.888-0.401v-0.377c0-0.462-6e-3 -0.773-6e-3 -0.925v-4e-3c0.157-0.316 0.403-0.466 0.766-0.466m-0.777 2.31c0.302 0.196 0.619 0.293 0.976 0.293 0.864 0 1.42-0.526 1.42-1.436 0-1.017-0.637-1.626-1.66-1.626-0.304 0-0.55 0.081-0.754 0.236-6e-3 -0.317-0.064-0.45-0.293-0.45-0.17 0-0.269 0.108-0.269 0.295 0 0.07 0.052 0.701 0.052 1.971 0 0.459-4e-3 0.871-0.058 1.246-0.041 0.281-0.105 0.459-0.105 0.547 0 0.101 0.129 0.195 0.27 0.195 0.339 0 0.367-0.389 0.427-1.271h-6e-3" clip-path="url(#ba)"/>
<path transform="matrix(.35278 0 0 -.35278 28.186 16.275)" d="m0 0c0 0.146 0.087 0.223 0.244 0.223 0.129 0 0.205-0.077 0.311-0.234 0.14-0.212 0.315-0.716 0.842-1.36 0.349 0.79 0.392 1.32 0.472 1.521 0.061 0.137 0.135 0.204 0.258 0.204 0.157 0 0.264-0.107 0.264-0.299 0-0.151-0.082-0.52-0.293-1.075-0.286-0.75-0.661-1.313-0.964-1.789-0.258-0.399-0.304-0.677-0.572-0.677-0.134 0-0.265 0.118-0.265 0.238 0 0.268 0.386 0.681 0.848 1.43-0.836 0.974-1.145 1.656-1.145 1.818" clip-path="url(#az)"/>
<path transform="matrix(.35278 0 0 -.35278 30.233 16.368)" d="m0 0c-0.484 0-0.895-0.314-1.087-0.884 0.151-0.015 0.299-0.02 0.433-0.02 0.386 0 0.824 0.055 1.339 0.161-0.024 0.465-0.311 0.743-0.685 0.743m-0.32-2.253c0.338 0 0.502 0.166 0.736 0.372 0.053 0.048 0.128 0.077 0.18 0.077 0.158 0 0.294-0.117 0.294-0.266 0-0.056-0.036-0.128-0.083-0.173-0.334-0.314-0.69-0.465-1.151-0.465-0.883 0-1.363 0.47-1.363 1.364 0 0.454 0.164 0.894 0.433 1.213 0.327 0.383 0.748 0.58 1.222 0.58 0.753 0 1.304-0.486 1.304-1.162 0-0.177-0.024-0.272-0.205-0.379-0.082-0.051-0.275-0.085-0.578-0.141-0.373-0.067-0.742-0.116-1.106-0.116-0.157 0-0.328 0.01-0.502 0.026 0-0.617 0.28-0.93 0.819-0.93" clip-path="url(#ay)"/>
<path transform="matrix(.35278 0 0 -.35278 31.296 17.309)" d="m0 0c-0.871 0-1.397 0.436-1.397 1.219 0 0.525 0.186 0.98 0.491 1.288 0.344 0.343 0.842 0.54 1.381 0.54 0.653 0 1.138-0.247 1.138-0.469 0-0.111-0.105-0.203-0.228-0.203-0.156 0-0.438 0.217-0.887 0.217-0.732 0-1.303-0.526-1.303-1.333 0-0.537 0.296-0.809 0.881-0.809 0.422 0 0.701 0.178 0.891 0.546 0.226 0.455 0.244 0.792 0.302 0.92 0.063 0.135 0.123 0.205 0.28 0.205 0.164 0 0.267-0.1 0.267-0.262 0-0.151-0.109-0.343-0.168-0.586-0.082-0.343-0.134-0.793-0.134-1.322 0-0.56 0.146-0.713 0.146-0.758 0-0.117-0.139-0.232-0.287-0.232-0.279 0-0.415 0.328-0.415 0.99 0 0.166 9e-3 0.319 0.019 0.454-0.229-0.266-0.563-0.405-0.977-0.405" clip-path="url(#ax)"/>
<path transform="matrix(.35278 0 0 -.35278 32.997 16.757)" d="m0 0c0 0.971 5e-3 1.396 0.368 1.396 0.17 0 0.239-0.091 0.239-0.291 0-0.175-0.045-0.498-0.045-0.963 0-1.021 0.214-1.531 0.214-1.616 0-0.163-0.129-0.284-0.285-0.284-0.17 0-0.274 0.197-0.381 0.601-0.327-0.388-0.691-0.57-1.17-0.57-0.761 0-1.138 0.525-1.138 1.57 0 0.622 0.062 1.112 0.122 1.405 0.052 0.248 0.17 0.369 0.362 0.369 0.142 0 0.256-0.101 0.256-0.221 0-0.285-0.162-0.814-0.162-1.602 0-0.697 0.232-1.058 0.673-1.058 0.573 0 0.947 0.397 0.947 1.117v0.147" clip-path="url(#aw)"/>
<path transform="matrix(.35278 0 0 -.35278 33.835 16.044)" d="m0 0c0-0.211-0.149-0.348-0.395-0.348-0.21 0-0.379 0.147-0.379 0.328 0 0.197 0.18 0.353 0.415 0.353 0.214 0 0.359-0.131 0.359-0.333m-0.244-3.138c-0.058-0.338-0.11-0.514-0.356-0.514-0.152 0-0.275 0.1-0.275 0.22 0 0.041 0.182 0.436 0.182 1.481 0 0.346-0.012 0.572-0.012 0.674 0 0.423 0.064 0.605 0.322 0.605 0.174 0 0.262-0.092 0.262-0.267 0-1.116-0.064-1.861-0.123-2.199" clip-path="url(#av)"/>
<path transform="matrix(.35278 0 0 -.35278 34.591 17.133)" d="m0 0c0.653 0 1.033 0.333 1.033 0.94 0 0.606-0.345 0.949-0.917 0.949-0.437 0-0.732-0.136-0.831-0.368v-0.243c0-0.382-0.011-0.757-0.035-1.126 0.246-0.101 0.492-0.152 0.75-0.152m-0.726 2.056c0.222 0.187 0.521 0.288 0.889 0.288 0.854 0 1.437-0.536 1.437-1.404 0-0.844-0.625-1.383-1.6-1.383-0.271 0-0.533 0.049-0.795 0.155-0.076-0.656-0.094-0.93-0.369-0.93-0.164 0-0.288 0.101-0.288 0.223 0 0.07 0.182 0.853 0.182 2.531 0 0.262-0.011 0.455-0.011 0.572 0 0.227 0.07 0.328 0.261 0.328 0.165 0 0.284-0.092 0.288-0.23l6e-3 -0.15" clip-path="url(#au)"/>
<path transform="matrix(.35278 0 0 -.35278 35.876 16.354)" d="m0 0c0.243 0 0.433-0.086 0.571-0.264 0.246 0.35 0.578 0.517 1.024 0.517 0.666 0 0.965-0.455 0.965-1.396 0-1.251-0.181-1.888-0.52-1.888-0.141 0-0.199 0.07-0.199 0.218 0 0.185 0.192 0.752 0.192 1.681 0 0.626-0.157 0.93-0.509 0.93-0.636 0-0.689-0.626-0.689-1.884 0-0.283 0.059-0.479 0.059-0.592 0-0.156-0.096-0.24-0.27-0.24-0.233 0-0.322 0.29-0.322 0.886 0 0.637 0.064 1.048 0.064 1.225 0 0.246-0.14 0.363-0.443 0.363-0.567 0-0.79-0.424-0.79-1.314 0-0.712 0.059-1.08 0.059-1.133 0-0.12-0.117-0.216-0.281-0.216-0.298 0-0.334 0.319-0.334 1.046 0 0.682 0.065 1.37 0.201 2.021 0.08 0.394 0.139 0.545 0.379 0.545 0.163 0 0.268-0.089 0.268-0.247 0-0.071-0.057-0.254-0.127-0.557 0.157 0.194 0.408 0.299 0.702 0.299" clip-path="url(#at)"/>
<path transform="matrix(.35278 0 0 -.35278 37.593 16.368)" d="m0 0c-0.486 0-0.895-0.314-1.088-0.884 0.152-0.015 0.299-0.02 0.434-0.02 0.384 0 0.824 0.055 1.337 0.161-0.022 0.465-0.308 0.743-0.683 0.743m-0.322-2.253c0.34 0 0.504 0.166 0.736 0.372 0.054 0.048 0.131 0.077 0.182 0.077 0.156 0 0.293-0.117 0.293-0.266 0-0.056-0.036-0.128-0.082-0.173-0.332-0.314-0.689-0.465-1.152-0.465-0.882 0-1.362 0.47-1.362 1.364 0 0.454 0.164 0.894 0.433 1.213 0.326 0.383 0.749 0.58 1.221 0.58 0.754 0 1.305-0.486 1.305-1.162 0-0.177-0.024-0.272-0.205-0.379-0.083-0.051-0.276-0.085-0.579-0.141-0.374-0.067-0.743-0.116-1.106-0.116-0.157 0-0.326 0.01-0.502 0.026 0-0.617 0.28-0.93 0.818-0.93" clip-path="url(#as)"/>
<path transform="matrix(.35278 0 0 -.35278 38.787 16.284)" d="m0 0c0.737 0 1.175-0.486 1.175-1.381 0-0.396-0.074-0.782-0.221-1.166-0.094-0.242-0.199-0.359-0.338-0.359-0.146 0-0.263 0.086-0.263 0.197 0 0.177 0.275 0.591 0.275 1.297 0 0.627-0.246 0.963-0.697 0.963-0.521 0-0.907-0.363-0.907-0.946 0-0.459 0.161-0.893 0.161-1.277 0-0.293-0.077-0.426-0.284-0.426-0.203 0-0.232 0.073-0.267 0.228-6e-3 0.03-6e-3 0.307-0.071 0.884-0.053 0.446-0.117 0.925-0.117 1.449 0 0.502 0.106 0.749 0.334 0.749 0.145 0 0.264-0.091 0.264-0.192 0-0.126-0.071-0.268-0.071-0.459v-0.057c0.281 0.328 0.637 0.496 1.027 0.496" clip-path="url(#ar)"/>
<path transform="matrix(.35278 0 0 -.35278 40.291 16.551)" d="m0 0c0-0.117-0.099-0.209-0.211-0.209-0.162 0-0.416 0.193-0.882 0.193-0.022 0-0.089 0-0.18-0.011-0.073-0.268-0.106-0.514-0.106-0.737 0-0.58 0.239-0.893 0.637-0.893 0.175 0 0.314 0.1 0.457 0.1 0.133 0 0.226-0.09 0.226-0.232 0-0.196-0.257-0.338-0.701-0.338-0.801 0-1.211 0.464-1.211 1.393 0 0.209 0.029 0.422 0.082 0.648-0.261-0.035-0.455-0.086-0.601-0.086-0.192 0-0.305 0.074-0.305 0.202 0 0.191 0.352 0.302 1.052 0.359 0.147 0.399 0.334 0.595 0.532 0.595 0.129 0 0.234-0.091 0.234-0.207 0-0.106-0.069-0.207-0.127-0.359 0.731-0.02 1.104-0.177 1.104-0.418" clip-path="url(#aq)"/>
<path transform="matrix(.35278 0 0 -.35278 41.501 16.252)" d="m0 0c0.872 0 1.287-0.576 1.287-1.737 0-0.97-0.24-1.535-0.531-1.535-0.174 0-0.305 0.112-0.305 0.221 0 0.151 0.268 0.567 0.268 1.314 0 0.88-0.215 1.284-0.772 1.284-0.291 0-0.631-0.143-0.788-0.314-0.139-0.151-0.152-0.309-0.152-0.501v-0.158c0-1.035 0.112-1.625 0.112-1.77 0-0.163-0.09-0.243-0.264-0.243-0.21 0-0.259 0.095-0.304 0.359-0.051 0.312-0.098 0.832-0.098 1.529 0 0.516 0.063 1.164 0.215 1.916 0.051 0.266 0.088 0.408 0.305 0.408 0.139 0 0.257-0.101 0.257-0.248 0-0.049-0.06-0.329-0.148-0.828 0.253 0.203 0.557 0.303 0.918 0.303" clip-path="url(#ap)"/>
<path transform="matrix(.35278 0 0 -.35278 42.54 16.044)" d="m0 0c0-0.211-0.15-0.348-0.395-0.348-0.212 0-0.38 0.147-0.38 0.328 0 0.197 0.179 0.353 0.414 0.353 0.215 0 0.361-0.131 0.361-0.333m-0.245-3.138c-0.058-0.338-0.109-0.514-0.357-0.514-0.151 0-0.275 0.1-0.275 0.22 0 0.041 0.182 0.436 0.182 1.481 0 0.346-0.011 0.572-0.011 0.674 0 0.423 0.063 0.605 0.32 0.605 0.176 0 0.264-0.092 0.264-0.267 0-1.116-0.065-1.861-0.123-2.199" clip-path="url(#ao)"/>
<path transform="matrix(.35278 0 0 -.35278 43.363 16.352)" d="m0 0c0.387 0 0.638-0.176 0.638-0.402 0-0.127-0.101-0.223-0.224-0.223-0.15 0-0.238 0.171-0.443 0.171-0.356 0-0.608-0.288-0.608-0.765v-0.32c0-0.743-0.199-1.158-0.45-1.158-0.157 0-0.257 0.08-0.257 0.223 0 0.157 0.158 0.429 0.158 0.859 0 0.489-0.112 0.893-0.23 1.105-0.105 0.194-0.23 0.324-0.23 0.441 0 0.105 0.138 0.217 0.278 0.217 0.206 0 0.368-0.212 0.504-0.642 0.192 0.324 0.508 0.494 0.864 0.494" clip-path="url(#an)"/>
<path transform="matrix(.35278 0 0 -.35278 44.302 16.368)" d="m0 0c-0.484 0-0.893-0.314-1.087-0.884 0.151-0.015 0.298-0.02 0.433-0.02 0.384 0 0.824 0.055 1.338 0.161-0.022 0.465-0.309 0.743-0.684 0.743m-0.322-2.253c0.341 0 0.504 0.166 0.736 0.372 0.056 0.048 0.13 0.077 0.182 0.077 0.158 0 0.292-0.117 0.292-0.266 0-0.056-0.034-0.128-0.08-0.173-0.333-0.314-0.691-0.465-1.152-0.465-0.883 0-1.362 0.47-1.362 1.364 0 0.454 0.163 0.894 0.433 1.213 0.327 0.383 0.746 0.58 1.222 0.58 0.753 0 1.303-0.486 1.303-1.162 0-0.177-0.023-0.272-0.205-0.379-0.083-0.051-0.276-0.085-0.577-0.141-0.375-0.067-0.744-0.116-1.106-0.116-0.159 0-0.329 0.01-0.503 0.026 0-0.617 0.28-0.93 0.817-0.93" clip-path="url(#am)"/>
<path transform="matrix(.35278 0 0 -.35278 45.677 17.225)" d="m0 0c0.286 0 0.484 0.17 0.484 0.394 0 0.23-0.246 0.343-0.583 0.576-0.391 0.267-0.58 0.535-0.58 0.924 0 0.576 0.45 0.964 1.112 0.964 0.568 0 0.977-0.302 0.977-0.576 0-0.152-0.112-0.248-0.289-0.248-0.163 0-0.175 0.106-0.239 0.178-0.101 0.111-0.292 0.197-0.475 0.197-0.325 0-0.502-0.172-0.502-0.496 0-0.24 0.117-0.367 0.369-0.534 0.438-0.293 0.795-0.491 0.795-0.944 0-0.527-0.433-0.891-1.069-0.891-0.616 0-1.03 0.31-1.03 0.702 0 0.202 0.105 0.303 0.304 0.303 0.187 0 0.258-0.105 0.263-0.338 0.142-0.148 0.28-0.211 0.463-0.211" clip-path="url(#al)"/>
<path transform="matrix(.35278 0 0 -.35278 46.898 16.368)" d="m0 0c-0.487 0-0.896-0.314-1.088-0.884 0.151-0.015 0.297-0.02 0.434-0.02 0.383 0 0.822 0.055 1.336 0.161-0.022 0.465-0.309 0.743-0.682 0.743m-0.322-2.253c0.338 0 0.504 0.166 0.736 0.372 0.053 0.048 0.127 0.077 0.181 0.077 0.159 0 0.292-0.117 0.292-0.266 0-0.056-0.035-0.128-0.082-0.173-0.332-0.314-0.69-0.465-1.151-0.465-0.883 0-1.361 0.47-1.361 1.364 0 0.454 0.161 0.894 0.433 1.213 0.325 0.383 0.747 0.58 1.219 0.58 0.754 0 1.304-0.486 1.304-1.162 0-0.177-0.023-0.272-0.204-0.379-0.082-0.051-0.274-0.085-0.578-0.141-0.375-0.067-0.742-0.116-1.106-0.116-0.156 0-0.326 0.01-0.502 0.026 0-0.617 0.281-0.93 0.819-0.93" clip-path="url(#ak)"/>
<path transform="matrix(.35278 0 0 -.35278 48.061 16.352)" d="m0 0c0.385 0 0.637-0.176 0.637-0.402 0-0.127-0.101-0.223-0.223-0.223-0.151 0-0.24 0.171-0.445 0.171-0.356 0-0.607-0.288-0.607-0.765v-0.32c0-0.743-0.198-1.158-0.45-1.158-0.157 0-0.259 0.08-0.259 0.223 0 0.157 0.16 0.429 0.16 0.859 0 0.489-0.112 0.893-0.229 1.105-0.105 0.194-0.234 0.324-0.234 0.441 0 0.105 0.14 0.217 0.281 0.217 0.205 0 0.367-0.212 0.504-0.642 0.191 0.324 0.508 0.494 0.865 0.494" clip-path="url(#aj)"/>
<path transform="matrix(.35278 0 0 -.35278 49.152 16.325)" d="m0 0c0.066 0.334 0.066 0.51 0.311 0.51 0.188 0 0.287-0.12 0.287-0.352 0-0.137-0.041-0.344-0.123-0.633-0.083-0.283-0.217-0.879-0.731-1.779-0.24-0.423-0.439-0.635-0.62-0.635-0.265 0-0.245 0.389-0.485 1.041-0.298 0.824-0.614 1.438-0.86 1.823-0.08 0.132-0.175 0.222-0.175 0.325 0 0.139 0.1 0.221 0.257 0.221 0.393 0 0.83-0.865 1.409-2.591 0.329 0.554 0.561 1.242 0.73 2.07" clip-path="url(#ai)"/>
<path transform="matrix(.35278 0 0 -.35278 49.875 16.044)" d="m0 0c0-0.211-0.151-0.348-0.396-0.348-0.21 0-0.38 0.147-0.38 0.328 0 0.197 0.179 0.353 0.415 0.353 0.214 0 0.361-0.131 0.361-0.333m-0.245-3.138c-0.057-0.338-0.111-0.514-0.356-0.514-0.152 0-0.275 0.1-0.275 0.22 0 0.041 0.181 0.436 0.181 1.481 0 0.346-0.011 0.572-0.011 0.674 0 0.423 0.064 0.605 0.32 0.605 0.175 0 0.264-0.092 0.264-0.267 0-1.116-0.065-1.861-0.123-2.199" clip-path="url(#ah)"/>
<path transform="matrix(.35278 0 0 -.35278 51.183 16.414)" d="m0 0c0-0.158-0.102-0.248-0.27-0.248-0.082 0-0.146 0.025-0.181 0.076-0.081 0.106-0.106 0.218-0.157 0.272-0.129 0.123-0.379 0.199-0.737 0.199-0.737 0-1.163-0.502-1.163-1.401 0-0.697 0.35-1.066 0.981-1.066 0.416 0 0.695 0.111 0.97 0.35 0.141 0.12 0.194 0.352 0.409 0.352 0.14 0 0.27-0.105 0.27-0.218 0-0.15-0.192-0.382-0.602-0.656-0.287-0.191-0.654-0.281-1.118-0.281-0.906 0-1.476 0.551-1.476 1.48 0 1.202 0.659 1.893 1.729 1.893 0.83 0 1.345-0.363 1.345-0.752" clip-path="url(#ag)"/>
<path transform="matrix(.35278 0 0 -.35278 51.954 16.368)" d="m0 0c-0.486 0-0.895-0.314-1.087-0.884 0.152-0.015 0.298-0.02 0.433-0.02 0.384 0 0.822 0.055 1.336 0.161-0.023 0.465-0.311 0.743-0.682 0.743m-0.321-2.253c0.339 0 0.501 0.166 0.735 0.372 0.053 0.048 0.129 0.077 0.183 0.077 0.157 0 0.292-0.117 0.292-0.266 0-0.056-0.035-0.128-0.082-0.173-0.332-0.314-0.69-0.465-1.152-0.465-0.883 0-1.362 0.47-1.362 1.364 0 0.454 0.164 0.894 0.434 1.213 0.326 0.383 0.746 0.58 1.22 0.58 0.754 0 1.305-0.486 1.305-1.162 0-0.177-0.025-0.272-0.205-0.379-0.082-0.051-0.276-0.085-0.58-0.141-0.373-0.067-0.742-0.116-1.106-0.116-0.156 0-0.325 0.01-0.502 0.026 0-0.617 0.282-0.93 0.82-0.93" clip-path="url(#af)"/>
<path transform="matrix(.35278 0 0 -.35278 53.455 16.614)" d="m0 0c0.321 0 0.463-0.064 0.463-0.242 0-0.156-0.111-0.252-0.32-0.252-0.047 0-0.131 0.01-0.258 0.01-0.199 0-0.416-0.036-0.651-0.036-0.173 0-0.255 0.071-0.255 0.229 0 0.258 0.297 0.291 1.021 0.291" clip-path="url(#ae)"/>
</g>
<g transform="matrix(1.7264 0 0 1.7264 -22.259 -9.1607)">
<path transform="matrix(.35278 0 0 -.35278 10.854 11.441)" d="m0 0c-2.768 0-4.783 0.041-6.086 0.1-0.081-1.834-0.101-3.291-0.101-4.37 0-1.076 0.02-1.794 0.02-2.132 0-1.278-0.224-1.836-1.079-1.836-0.815 0-1.058 0.539-1.058 1.735 0 0.458 0.021 2.714 0.122 6.782-0.427 0.2-0.672 0.479-0.672 0.817 0 0.461 0.245 0.738 0.733 0.857 0.203 3.372 0.326 5.445 0.448 6.203 0.143 0.839 0.528 1.239 1.181 1.239 0.65 0 0.976-0.379 0.976-1.178 0-0.379-0.244-2.453-0.468-6.242 1.119-0.039 2.28-0.039 3.501-0.039 1.79 0 3.723 0.039 5.82 0.158 0.061 3.689 0.142 5.783 0.184 6.283 0.081 0.956 0.405 1.396 1.098 1.396 0.712 0 1.018-0.419 1.018-1.318 0-0.537-0.244-3.408-0.244-8.596 0-3.888 0.06-5.982 0.06-6.321 0-0.998-0.305-1.457-1.058-1.457-0.752 0-0.977 0.399-1.038 1.357-0.02 0.419-0.041 1.176-0.041 2.273v4.309c-1.201-0.02-2.319-0.02-3.316-0.02" clip-path="url(#ad)" fill="#231f20"/>
<path transform="matrix(.35278 0 0 -.35278 14.939 9.2061)" d="m0 0c0-0.837-0.53-1.376-1.384-1.376-0.732 0-1.324 0.578-1.324 1.297 0 0.778 0.631 1.396 1.445 1.396 0.753 0 1.263-0.517 1.263-1.317m-0.854-12.386c-0.206-1.336-0.389-2.035-1.243-2.035-0.529 0-0.957 0.399-0.957 0.879 0 0.158 0.631 1.715 0.631 5.844 0 1.355-0.04 2.254-0.04 2.652 0 1.674 0.224 2.395 1.119 2.395 0.611 0 0.915-0.362 0.915-1.059 0-4.407-0.223-7.34-0.425-8.676" clip-path="url(#ac)" fill="#231f20"/>
<path transform="matrix(.35278 0 0 -.35278 17.753 9.6116)" d="m0 0c1.343 0 2.22-0.697 2.22-1.596 0-0.499-0.347-0.877-0.774-0.877-0.529 0-0.835 0.678-1.547 0.678-1.242 0-2.117-1.137-2.117-3.012v-1.276c0-2.933-0.691-4.568-1.566-4.568-0.551 0-0.896 0.319-0.896 0.88 0 0.617 0.55 1.693 0.55 3.39 0 1.934-0.387 3.529-0.793 4.367-0.367 0.758-0.815 1.276-0.815 1.735 0 0.419 0.489 0.859 0.976 0.859 0.713 0 1.283-0.84 1.75-2.535 0.673 1.277 1.772 1.955 3.012 1.955" clip-path="url(#ab)" fill="#231f20"/>
<path transform="matrix(.35278 0 0 -.35278 20.195 10.757)" d="m0 0c-1.648 0-3.039-1.236-3.693-3.49 0.515-0.061 1.011-0.08 1.468-0.08 1.311 0 2.799 0.219 4.547 0.638-0.08 1.834-1.051 2.932-2.322 2.932m-1.092-8.896c1.151 0 1.707 0.66 2.502 1.476 0.179 0.181 0.436 0.299 0.615 0.299 0.536 0 0.993-0.458 0.993-1.057 0-0.22-0.12-0.498-0.278-0.676-1.133-1.238-2.344-1.837-3.912-1.837-2.998 0-4.625 1.855-4.625 5.386 0 1.795 0.555 3.53 1.469 4.787 1.111 1.516 2.541 2.293 4.148 2.293 2.562 0 4.428-1.916 4.428-4.588 0-0.697-0.08-1.077-0.695-1.496-0.278-0.199-0.933-0.337-1.964-0.557-1.272-0.261-2.523-0.459-3.753-0.459-0.536 0-1.113 0.04-1.708 0.099 0-2.432 0.953-3.67 2.78-3.67" clip-path="url(#aa)" fill="#231f20"/>
<path transform="matrix(.35278 0 0 -.35278 27.331 11.688)" d="m0 0c0-0.518-0.31-0.877-0.64-0.877-0.464 0-1.741 0.359-3.87 0.539-0.156-4.866-0.156-7.16-1.394-7.16-0.543 0-0.91 0.398-0.91 1.076 0 0.598 0.387 2.672 0.445 6.184-1.414 0.019-1.994 0.098-1.994 0.937 0 0.498 0.347 0.838 0.871 0.838h0.039l1.103-0.041c0.059 1.975 0.02 3.451 0.31 4.43 0.639 2.113 2.11 3.269 4.143 3.269 2.459 0 3.929-0.936 3.929-1.795 0-0.459-0.407-0.896-0.832-0.896-0.465 0-1.277 0.896-3.001 0.896-1.063 0-1.819-0.459-2.245-1.357-0.485-1.016-0.349-2.551-0.445-4.646 3.057-0.26 4.491-0.44 4.491-1.397" clip-path="url(#z)" fill="#231f20"/>
<path transform="matrix(.35278 0 0 -.35278 35.208 9.6116)" d="m0 0c1.342 0 2.219-0.697 2.219-1.596 0-0.499-0.348-0.877-0.776-0.877-0.526 0-0.832 0.678-1.545 0.678-1.24 0-2.117-1.137-2.117-3.012v-1.276c0-2.933-0.691-4.568-1.566-4.568-0.55 0-0.895 0.319-0.895 0.88 0 0.617 0.549 1.693 0.549 3.39 0 1.934-0.387 3.529-0.793 4.367-0.367 0.758-0.814 1.276-0.814 1.735 0 0.419 0.488 0.859 0.977 0.859 0.712 0 1.282-0.84 1.749-2.535 0.672 1.277 1.772 1.955 3.012 1.955" clip-path="url(#y)" fill="#231f20"/>
<path transform="matrix(.35278 0 0 -.35278 42.194 11.994)" d="m0 0c0-1.715-0.717-3.092-2.167-4.229-1.144-0.876-2.634-1.396-4.261-1.396-0.832 0-1.761 0.159-2.787 0.459-0.115-0.639-0.406-0.938-0.93-0.938-0.794 0-1.025 0.638-1.025 2.055 0 0.838 0.156 4.608 0.677 11.289 0.157 2.094 0.253 3.032 1.239 3.032 0.562 0 0.853-0.399 0.853-1.177 0-0.579-0.62-4.648-0.794-12.266 1.064-0.339 2.013-0.518 2.904-0.518 2.594 0 4.277 1.656 4.277 3.689 0 1.975-1.413 3.052-4.084 3.052-0.291 0-0.582-0.019-0.872-0.019-0.523 0-0.87 0.317-0.87 0.817 0 0.358 0.194 0.677 0.484 0.798 0.502 0.218 1.124 0.139 1.743 0.3 1.065 0.257 1.8 1.335 1.8 2.732 0 1.914-1.569 3.031-4.414 3.031-1.435 0-2.341-0.379-3.136-0.72-0.562-0.237-1.084-0.596-1.665-0.596-0.503 0-0.853 0.399-0.853 0.817 0 0.438 0.292 0.72 0.93 1.098 1.316 0.797 3.117 1.295 5.15 1.295 3.737 0 6.001-1.894 6.001-4.726 0-1.356-0.428-2.395-1.432-3.352 2.032-0.658 3.232-2.373 3.232-4.527" clip-path="url(#x)" fill="#231f20"/>
<path transform="matrix(.35278 0 0 -.35278 44.496 11.699)" d="m0 0c-2.018 0-3.112-0.668-3.112-1.865 0-1.241 1.022-1.881 3.09-1.881 1.799 0 2.87 0.699 2.87 1.866 0 1.212-1.047 1.88-2.848 1.88m-0.557-4.988c-3.041 0-4.865 1.123-4.865 3.063 0 1.985 2.043 3.198 5.082 3.198 1.338 0 2.457-0.273 3.382-0.834-0.146 1.957-1.289 2.926-3.478 2.926-1.289 0-1.97-0.547-2.627-0.547-0.535 0-1.045 0.334-1.045 0.684 0 0.56 1.532 1.227 3.672 1.227 3.722 0 5.692-1.651 5.692-4.866 0-1.302-0.317-2.773-0.949-4.244-0.317-0.742-0.705-1.107-1.411-1.107-0.609 0-0.973 0.242-0.973 0.683 0 0.076 0 0.152 0.024 0.227-0.802-0.274-1.605-0.41-2.504-0.41" clip-path="url(#w)" fill="#231f20"/>
<path transform="matrix(.35278 0 0 -.35278 48.658 13.031)" d="m0 0c2.116 0 3.662 1.775 3.662 4.549 0 2.512-1.281 4.028-3.216 4.028-1.365 0-2.463-0.558-3.092-1.577v-1.494c0-1.817-0.019-3.053-0.019-3.651v-0.019c0.547-1.238 1.401-1.836 2.665-1.836m-2.707 9.116c1.058 0.779 2.157 1.157 3.398 1.157 3.013 0 4.945-2.076 4.945-5.666 0-4.009-2.217-6.421-5.778-6.421-1.059 0-1.914 0.318-2.625 0.936-0.022-1.255-0.226-1.774-1.019-1.774-0.589 0-0.938 0.419-0.938 1.156 0 0.28 0.186 2.773 0.186 7.779 0 1.815-0.022 3.451-0.204 4.926-0.142 1.119-0.366 1.816-0.366 2.155 0 0.399 0.447 0.777 0.936 0.777 1.179 0 1.282-1.536 1.484-5.025h-0.019" clip-path="url(#v)" fill="#231f20"/>
<path transform="matrix(.35278 0 0 -.35278 50.618 10.392)" d="m0 0c0 0.58 0.305 0.879 0.855 0.879 0.447 0 0.711-0.299 1.077-0.918 0.489-0.838 1.101-2.833 2.931-5.365 1.221 3.111 1.364 5.206 1.649 6.003 0.203 0.539 0.467 0.799 0.895 0.799 0.548 0 0.914-0.419 0.914-1.178 0-0.598-0.284-2.054-1.014-4.249-0.999-2.95-2.301-5.185-3.36-7.061-0.896-1.574-1.056-2.672-1.994-2.672-0.469 0-0.915 0.459-0.915 0.938 0 1.058 1.343 2.692 2.95 5.643-2.912 3.851-3.988 6.543-3.988 7.181" clip-path="url(#u)" fill="#231f20"/>
<path transform="matrix(.35278 0 0 -.35278 32.605 11.907)" d="m0 0s1.045 0.415 1.483-0.021c0.443-0.44 0.835-0.668 0.697-1.754-0.139-1.086-0.902-1.274-1.135-1.252-0.234 0.021-1.038 0.532-1.18 0.75l-0.144 0.219 0.279 2.058" clip-path="url(#t)" fill="#f8e1dc"/>
<path transform="matrix(.35278 0 0 -.35278 32.605 11.908)" d="m0 0s1.046 0.418 1.483-0.019c0.443-0.44 0.837-0.668 0.699-1.755-0.139-1.084-0.904-1.274-1.136-1.252-0.233 0.021-1.039 0.534-1.181 0.752l-0.142 0.218z" clip-path="url(#s)" fill="none" stroke="#231f20" stroke-width=".163"/>
<path transform="matrix(.35278 0 0 -.35278 27.995 11.213)" d="m0 0s-1.437 1.289-0.808 2.229c0.624 0.939 2.13 0.896 2.479 0.667 0.35-0.229 0.734-0.734 0.641-1.085-0.096-0.35-0.547-0.42-0.547-0.42s-1.154-0.774-1.314-0.924c-0.159-0.154-0.451-0.467-0.451-0.467" clip-path="url(#r)" fill="#f8e1dc"/>
<path transform="matrix(.35278 0 0 -.35278 27.995 11.213)" d="m0 0s-1.436 1.289-0.809 2.229c0.626 0.938 2.131 0.896 2.481 0.666 0.349-0.23 0.734-0.735 0.639-1.084-0.095-0.35-0.545-0.421-0.545-0.421s-1.154-0.773-1.315-0.925c-0.159-0.152-0.451-0.465-0.451-0.465z" clip-path="url(#q)" fill="none" stroke="#231f20" stroke-width=".163"/>
<path transform="matrix(.35278 0 0 -.35278 32.623 12.107)" d="m0 0c0-2.73-3.161-4.947-7.056-4.947-3.897 0-7.058 2.217-7.058 4.947 0 2.732 3.161 4.949 7.058 4.949 3.895 0 7.056-2.217 7.056-4.949" clip-path="url(#p)" fill="#f8e1dc"/>
<path transform="matrix(.35278 0 0 -.35278 32.622 12.107)" d="m0 0c0-2.732-3.16-4.947-7.055-4.947-3.896 0-7.058 2.215-7.058 4.947s3.162 4.947 7.058 4.947c3.895 0 7.055-2.215 7.055-4.947z" clip-path="url(#o)" fill="none" stroke="#231f20" stroke-width=".163"/>
<path transform="matrix(.35278 0 0 -.35278 29.941 11.134)" d="m0 0 0.356-0.172s-0.337-0.609-0.464-0.854c-0.125-0.249-0.106-0.382-0.062-0.517 0.042-0.132 0.124-0.34 0.124-0.34l-0.359-0.231s-0.358 0.591-0.167 1.104c0.188 0.516 0.572 1.01 0.572 1.01" clip-path="url(#n)" fill="#231f20"/>
<path transform="matrix(.35278 0 0 -.35278 30.767 11.208)" d="m0 0 0.424-0.189s-0.338-0.494-0.444-0.665c-0.105-0.171-0.084-0.42-0.042-0.534s0.148-0.304 0.148-0.304l-0.381-0.211s-0.422 0.647-0.168 1.087c0.187 0.324 0.463 0.816 0.463 0.816" clip-path="url(#m)" fill="#231f20"/>
<path transform="matrix(.35278 0 0 -.35278 29.225 12.369)" d="m0 0s-0.762-2.284 0.443-2.873c1.203-0.59 3.168 0.76 3.379 0.913 0.213 0.153 0.508 0.513 0.508 0.513s-1.689 0.115-2.322 0.361c-0.635 0.249-2.008 1.086-2.008 1.086" clip-path="url(#l)" fill="#231f20"/>
<path transform="matrix(.35278 0 0 -.35278 29.254 12.893)" d="m0 0s0.72 0 1.12-0.209c0.572-0.304 0.739-0.934 0.739-0.934s0.486 0.045 0.929 0.275c0.442 0.228 0.539 0.27 0.99 0.554 0.299 0.189 0.463 0.457 0.463 0.457s-1.445-0.038-2 0.162c-0.556 0.199-1.303 0.58-1.704 0.812-0.399 0.235-0.295 0.173-0.295 0.173s-0.099-0.47-0.136-0.721c-0.041-0.284-0.106-0.569-0.106-0.569" clip-path="url(#k)" fill="#f1485f"/>
<path transform="matrix(.35278 0 0 -.35278 29.023 12.194)" d="m0 0 0.383 0.189s0.695-1.047 2.154-1.541c1.457-0.494 2.133-0.421 2.555-0.21 0.424 0.21 0.572 0.361 0.572 0.361l0.254-0.283s-0.57-0.705-1.944-0.61c-1.371 0.094-3.064 0.989-3.487 1.465s-0.487 0.629-0.487 0.629" clip-path="url(#j)" fill="#231f20"/>
<path transform="matrix(.35278 0 0 -.35278 29.361 13.321)" d="m0 0c0.375-0.228 0.671-0.23 0.903-0.209 0.233 0.02 0.597 0.213 0.597 0.213s-0.215 0.725-0.682 0.933c-0.464 0.213-1.259 0.19-1.259 0.19s-0.069-0.82 0.441-1.127" clip-path="url(#i)" fill="#75311d"/>
<path transform="matrix(.35278 0 0 -.35278 29.206 12.923)" d="m0 0s0.687 0.044 1.259-0.188c0.57-0.231 0.712-1.067 0.712-1.067" clip-path="url(#h)" fill="none" stroke="#231f20" stroke-width=".065"/>
<path transform="matrix(.35278 0 0 -.35278 28.445 10.426)" d="m0 0s0.022-0.335 0.046-0.524c0.024-0.188 0.123-0.498 0.123-0.498l-0.06-0.036s-0.248 0.202-0.226 0.431c0.023 0.23 0.117 0.627 0.117 0.627" clip-path="url(#g)" fill="#231f20"/>
<path transform="matrix(.35278 0 0 -.35278 27.979 10.633)" d="m0 0s0.277-0.229 0.462-0.375c0.186-0.145 0.434-0.465 0.434-0.465l0.102 0.076s-0.166 0.264-0.488 0.535c-0.324 0.272-0.51 0.229-0.51 0.229" clip-path="url(#f)" fill="#231f20"/>
<path transform="matrix(.35278 0 0 -.35278 32.617 12.217)" d="m0 0s0.826 0.146 0.941 0.168c0.116 0.021 0.348-0.082 0.348-0.082s-0.418-0.084-0.646-0.106c-0.233-0.019-0.657-0.104-0.657-0.104l0.014 0.124" clip-path="url(#e)" fill="#231f20"/>
<path transform="matrix(.35278 0 0 -.35278 32.58 12.428)" d="m0 0s0.237-8e-3 0.329-0.049c0.094-0.041 0.81-0.542 0.81-0.542s-0.298 0.355-0.486 0.522c-0.185 0.167-0.613 0.235-0.613 0.235l-0.04-0.166" clip-path="url(#d)" fill="#231f20"/>
<path transform="matrix(.35278 0 0 -.35278 30.188 10.362)" d="m0 0s0.393 0.922 0.787 1.318c0.393 0.397 1.031 0.78 1.031 0.78s-0.662-0.069-1.101-0.445c-0.441-0.378-0.586-0.575-0.837-1.002-0.192-0.331-0.183-0.651-0.183-0.651h0.303" clip-path="url(#c)" fill="#231f20"/>
<path transform="matrix(.35278 0 0 -.35278 30.773 10.42)" d="m0 0s0.053 0.461 0.398 0.669c0.348 0.208 0.579 0.208 0.719 0.229 0.138 0.022 0.325 0.022 0.325 0.022s-0.555-0.147-0.811-0.334c-0.256-0.19-0.381-0.637-0.381-0.637l-0.25 0.051" clip-path="url(#b)" fill="#231f20"/>
<path transform="matrix(.35278 0 0 -.35278 31.36 10.589)" d="m0 0s0.079 0.147 0.959 0.355c0.883 0.21 1.251 0.21 1.6 0.21h0.764s-1.318 0.271-2.062 0.145c-0.74-0.126-1.547-0.601-1.547-0.601l0.286-0.109" clip-path="url(#a)" fill="#231f20"/>
</g>
</g>
</svg>
